<mxfile host="Electron" modified="2023-10-23T21:18:29.230Z" agent="Mozilla/5.0 (Macintosh; Intel Mac OS X 10_15_7) AppleWebKit/537.36 (KHTML, like Gecko) draw.io/22.0.3 Chrome/114.0.5735.289 Electron/25.8.4 Safari/537.36" etag="F9wzuisnFbgXCAf0w4cx" version="22.0.3" type="device">
  <diagram name="Page-1" id="67LjSn2wYaZvnsGKVz7s">
    <mxGraphModel dx="763" dy="539" grid="1" gridSize="10" guides="1" tooltips="1" connect="1" arrows="1" fold="1" page="1" pageScale="1" pageWidth="850" pageHeight="1100" math="0" shadow="0">
      <root>
        <mxCell id="0" />
        <mxCell id="1" parent="0" />
        <mxCell id="MdBOS8Fy-Uzz-wKaNLpx-3" value="POST /enviar-mensagem" style="rounded=0;orthogonalLoop=1;jettySize=auto;html=1;" edge="1" parent="1" source="MdBOS8Fy-Uzz-wKaNLpx-1" target="MdBOS8Fy-Uzz-wKaNLpx-2">
          <mxGeometry relative="1" as="geometry" />
        </mxCell>
        <mxCell id="MdBOS8Fy-Uzz-wKaNLpx-1" value="User" style="shape=umlActor;verticalLabelPosition=bottom;verticalAlign=top;html=1;outlineConnect=0;" vertex="1" parent="1">
          <mxGeometry x="296.2" y="420" width="30" height="60" as="geometry" />
        </mxCell>
        <mxCell id="MdBOS8Fy-Uzz-wKaNLpx-5" style="rounded=0;orthogonalLoop=1;jettySize=auto;html=1;" edge="1" parent="1" source="MdBOS8Fy-Uzz-wKaNLpx-2" target="MdBOS8Fy-Uzz-wKaNLpx-4">
          <mxGeometry relative="1" as="geometry" />
        </mxCell>
        <mxCell id="MdBOS8Fy-Uzz-wKaNLpx-6" value="producer" style="edgeLabel;html=1;align=center;verticalAlign=middle;resizable=0;points=[];" vertex="1" connectable="0" parent="MdBOS8Fy-Uzz-wKaNLpx-5">
          <mxGeometry x="-0.03" relative="1" as="geometry">
            <mxPoint x="-36" y="-9" as="offset" />
          </mxGeometry>
        </mxCell>
        <mxCell id="MdBOS8Fy-Uzz-wKaNLpx-2" value="" style="image;points=[];aspect=fixed;html=1;align=center;shadow=0;dashed=0;image=img/lib/allied_telesis/computer_and_terminals/Personal_Computer_with_Server.svg;" vertex="1" parent="1">
          <mxGeometry x="280" y="290" width="62.400000000000006" height="62.400000000000006" as="geometry" />
        </mxCell>
        <mxCell id="MdBOS8Fy-Uzz-wKaNLpx-4" value="kafka Broker" style="sketch=0;points=[[0,0,0],[0.25,0,0],[0.5,0,0],[0.75,0,0],[1,0,0],[0,1,0],[0.25,1,0],[0.5,1,0],[0.75,1,0],[1,1,0],[0,0.25,0],[0,0.5,0],[0,0.75,0],[1,0.25,0],[1,0.5,0],[1,0.75,0]];outlineConnect=0;fontColor=#232F3E;fillColor=#8C4FFF;strokeColor=#ffffff;dashed=0;verticalLabelPosition=bottom;verticalAlign=top;align=center;html=1;fontSize=12;fontStyle=0;aspect=fixed;shape=mxgraph.aws4.resourceIcon;resIcon=mxgraph.aws4.managed_streaming_for_kafka;" vertex="1" parent="1">
          <mxGeometry x="386" y="160" width="78" height="78" as="geometry" />
        </mxCell>
        <mxCell id="MdBOS8Fy-Uzz-wKaNLpx-7" value="" style="image;points=[];aspect=fixed;html=1;align=center;shadow=0;dashed=0;image=img/lib/allied_telesis/computer_and_terminals/Personal_Computer_with_Server.svg;" vertex="1" parent="1">
          <mxGeometry x="520" y="290" width="62.400000000000006" height="62.400000000000006" as="geometry" />
        </mxCell>
        <mxCell id="MdBOS8Fy-Uzz-wKaNLpx-8" style="rounded=0;orthogonalLoop=1;jettySize=auto;html=1;entryX=1;entryY=1;entryDx=0;entryDy=0;entryPerimeter=0;exitX=0.032;exitY=0;exitDx=0;exitDy=0;exitPerimeter=0;" edge="1" parent="1" source="MdBOS8Fy-Uzz-wKaNLpx-7" target="MdBOS8Fy-Uzz-wKaNLpx-4">
          <mxGeometry relative="1" as="geometry" />
        </mxCell>
        <mxCell id="MdBOS8Fy-Uzz-wKaNLpx-9" value="consumer" style="edgeLabel;html=1;align=center;verticalAlign=middle;resizable=0;points=[];" vertex="1" connectable="0" parent="MdBOS8Fy-Uzz-wKaNLpx-8">
          <mxGeometry x="-0.0588" y="-3" relative="1" as="geometry">
            <mxPoint x="21" y="-8" as="offset" />
          </mxGeometry>
        </mxCell>
        <mxCell id="MdBOS8Fy-Uzz-wKaNLpx-12" style="rounded=0;orthogonalLoop=1;jettySize=auto;html=1;dashed=1;endArrow=none;endFill=0;" edge="1" parent="1" source="MdBOS8Fy-Uzz-wKaNLpx-11" target="MdBOS8Fy-Uzz-wKaNLpx-7">
          <mxGeometry relative="1" as="geometry" />
        </mxCell>
        <mxCell id="MdBOS8Fy-Uzz-wKaNLpx-11" value="npm run consumer" style="shape=note;whiteSpace=wrap;html=1;backgroundOutline=1;darkOpacity=0.05;size=19;fillColor=#fff2cc;strokeColor=#d6b656;" vertex="1" parent="1">
          <mxGeometry x="510" y="400" width="160" height="38.8" as="geometry" />
        </mxCell>
        <mxCell id="MdBOS8Fy-Uzz-wKaNLpx-14" style="rounded=0;orthogonalLoop=1;jettySize=auto;html=1;dashed=1;endArrow=none;endFill=0;" edge="1" parent="1" source="MdBOS8Fy-Uzz-wKaNLpx-13" target="MdBOS8Fy-Uzz-wKaNLpx-2">
          <mxGeometry relative="1" as="geometry" />
        </mxCell>
        <mxCell id="MdBOS8Fy-Uzz-wKaNLpx-13" value="npm run server" style="shape=note;whiteSpace=wrap;html=1;backgroundOutline=1;darkOpacity=0.05;size=19;fillColor=#fff2cc;strokeColor=#d6b656;" vertex="1" parent="1">
          <mxGeometry x="90" y="280" width="160" height="38.8" as="geometry" />
        </mxCell>
      </root>
    </mxGraphModel>
  </diagram>
</mxfile>
